<?xml version="1.0" encoding="UTF-8" standalone="no"?>
<!DOCTYPE svg PUBLIC "-//W3C//DTD SVG 1.1//EN" "http://www.w3.org/Graphics/SVG/1.1/DTD/svg11.dtd">
<svg width="100%" height="100%" viewBox="0 0 304 65" version="1.1" xmlns="http://www.w3.org/2000/svg" xmlns:xlink="http://www.w3.org/1999/xlink" xml:space="preserve" xmlns:serif="http://www.serif.com/" style="fill-rule:evenodd;clip-rule:evenodd;stroke-linejoin:round;stroke-miterlimit:1.41421;">
    <g transform="matrix(1,0,0,1,253.202,3.6)">
        <path d="M0,59L-16.698,29.5L0,0L33.396,0L50.095,29.5L33.396,59L0,59Z" style="fill:rgb(190,33,86);fill-rule:nonzero;"/>
    </g>
    <g transform="matrix(1,0,0,1,256.452,9.6)">
        <path d="M0,47L-13.447,23.5L0,0L26.895,0L40.342,23.5L26.895,47L0,47Z" style="fill:rgb(0,155,139);fill-rule:nonzero;"/>
    </g>
    <g transform="matrix(1,0,0,1,280.55,33.1)">
        <path d="M0,0C0,5.882 -4.769,10.65 -10.65,10.65C-16.532,10.65 -21.301,5.882 -21.301,0C-21.301,-5.882 -16.532,-10.65 -10.65,-10.65C-4.769,-10.65 0,-5.882 0,0" style="fill:rgb(247,233,197);fill-rule:nonzero;"/>
    </g>
    <g transform="matrix(-1,-0,0,1,607.9,-982.4)">
        <rect x="337" y="1004" width="2" height="10" style="fill:rgb(0,155,139);"/>
    </g>
    <g transform="matrix(1,0,0,1,-68.1,-44.4)">
        <path d="M79.5,97.8C75.78,97.8 71.98,97.6 68.1,97.2L68.1,89.4L75.9,89.4C76.5,89.4 77,89.2 77.4,88.8C77.8,88.4 78,87.9 78,87.3L78,56.4L88.5,56.4L88.5,88.8C88.5,91.52 87.68,93.7 86.04,95.34C84.4,96.98 82.22,97.8 79.5,97.8ZM78,44.4L88.5,44.4L88.5,52.8L78,52.8L78,44.4Z" style="fill:rgb(0,155,139);fill-rule:nonzero;"/>
        <path d="M93.3,78.6C101.42,79.2 107.82,79.5 112.5,79.5C113.1,79.5 113.6,79.3 114,78.9C114.4,78.5 114.6,78 114.6,77.4L114.6,75.3L101.7,75.3C98.98,75.3 96.8,74.48 95.16,72.84C93.52,71.2 92.7,69.02 92.7,66.3L92.7,64.2C92.7,61.48 93.52,59.3 95.16,57.66C96.8,56.02 98.98,55.2 101.7,55.2L122.1,55.2L122.1,63L105.3,63C104.7,63 104.2,63.2 103.8,63.6C103.4,64 103.2,64.5 103.2,65.1C103.2,65.7 103.4,66.2 103.8,66.6C104.2,67 104.7,67.2 105.3,67.2L116.1,67.2C118.82,67.2 121,68.02 122.64,69.66C124.28,71.3 125.1,73.48 125.1,76.2L125.1,78.6C125.1,81.32 124.28,83.5 122.64,85.14C121,86.78 118.82,87.6 116.1,87.6C109.02,87.6 101.42,87.2 93.3,86.4L93.3,78.6Z" style="fill:rgb(0,155,139);fill-rule:nonzero;"/>
        <rect x="128.1" y="90" width="24.6" height="8.4" style="fill:rgb(0,155,139);fill-rule:nonzero;"/>
        <path d="M165.9,97.8C163.78,97.8 161.18,97.6 158.1,97.2L158.1,89.4L163.5,89.4C165.02,89.4 166.01,88.98 166.47,88.14C166.93,87.3 166.84,86.12 166.2,84.6L153.9,55.2L165,55.2L172.5,75.6L178.8,55.2L189.9,55.2L177.9,88.2C176.74,91.36 175.24,93.75 173.4,95.37C171.56,96.99 169.06,97.8 165.9,97.8Z" style="fill:rgb(0,155,139);fill-rule:nonzero;"/>
        <path d="M209.4,63.3C207.28,63.3 204.88,63.7 202.2,64.5L202.2,87L191.7,87L191.7,55.2L201,55.2L201.6,58.2C203.48,56.96 205.41,56.05 207.39,55.47C209.37,54.89 211.04,54.6 212.4,54.6L215.1,54.6C217.82,54.6 220,55.42 221.64,57.06C223.28,58.7 224.1,60.88 224.1,63.6L224.1,87L213.6,87L213.6,65.4C213.6,64.8 213.4,64.3 213,63.9C212.6,63.5 212.1,63.3 211.5,63.3L209.4,63.3Z" style="fill:rgb(0,155,139);fill-rule:nonzero;"/>
        <path d="M251.7,87C247.82,87.4 244.02,87.6 240.3,87.6C237.58,87.6 235.4,86.78 233.76,85.14C232.12,83.5 231.3,81.32 231.3,78.6L231.3,63.3L227.7,63.3L227.7,55.2L231.3,55.2L232.5,48L241.8,48L241.8,55.2L249.3,55.2L249.3,63.3L241.8,63.3L241.8,77.1C241.8,77.7 242,78.2 242.4,78.6C242.8,79 243.3,79.2 243.9,79.2L251.7,79.2L251.7,87Z" style="fill:rgb(0,155,139);fill-rule:nonzero;"/>
        <path d="M266.4,55.8C270.28,55 273.68,54.6 276.6,54.6L279.3,54.6C282.02,54.6 284.2,55.42 285.84,57.06C287.48,58.7 288.3,60.88 288.3,63.6L288.3,87L277.8,87L277.8,64.8C277.8,64.2 277.6,63.7 277.2,63.3C276.8,62.9 276.3,62.7 275.7,62.7L273.6,62.7C272.08,62.7 270.69,62.78 269.43,62.94C268.17,63.1 267.16,63.22 266.4,63.3L266.4,87L255.9,87L255.9,45L266.4,45L266.4,55.8Z" style="fill:rgb(0,155,139);fill-rule:nonzero;"/>
    </g>
    <g transform="matrix(1,0,0,1,-68.1,-44.4)">
        <path d="M183.43,109.256C183.063,109.256 182.773,109.203 182.563,109.098L182.563,108.248C182.84,108.326 183.129,108.365 183.43,108.365C183.816,108.365 184.11,108.248 184.312,108.014C184.513,107.779 184.613,107.441 184.613,107L184.613,98.434L185.609,98.434L185.609,106.918C185.609,107.66 185.422,108.235 185.047,108.644C184.672,109.052 184.133,109.256 183.43,109.256Z" style="fill:rgb(0,155,139);fill-rule:nonzero;"/>
        <path d="M194.352,98.434L194.352,103.977C194.352,104.953 194.057,105.721 193.467,106.279C192.877,106.838 192.066,107.117 191.035,107.117C190.004,107.117 189.206,106.836 188.642,106.273C188.077,105.711 187.795,104.938 187.795,103.953L187.795,98.434L188.791,98.434L188.791,104.023C188.791,104.738 188.986,105.287 189.377,105.67C189.768,106.053 190.342,106.244 191.1,106.244C191.822,106.244 192.379,106.052 192.77,105.667C193.16,105.282 193.355,104.73 193.355,104.012L193.355,98.434L194.352,98.434Z" style="fill:rgb(0,155,139);fill-rule:nonzero;"/>
        <path d="M201.453,104.721C201.453,105.475 201.18,106.063 200.633,106.484C200.086,106.906 199.344,107.117 198.406,107.117C197.391,107.117 196.609,106.986 196.063,106.725L196.063,105.764C196.414,105.912 196.797,106.029 197.211,106.115C197.625,106.201 198.035,106.244 198.441,106.244C199.105,106.244 199.605,106.118 199.941,105.866C200.277,105.614 200.445,105.264 200.445,104.814C200.445,104.518 200.386,104.274 200.267,104.085C200.147,103.896 199.948,103.721 199.669,103.561C199.39,103.4 198.965,103.219 198.395,103.016C197.598,102.73 197.028,102.393 196.687,102.002C196.345,101.611 196.174,101.102 196.174,100.473C196.174,99.812 196.422,99.287 196.918,98.896C197.414,98.506 198.07,98.311 198.887,98.311C199.738,98.311 200.521,98.467 201.236,98.779L200.926,99.646C200.219,99.35 199.531,99.201 198.863,99.201C198.336,99.201 197.924,99.314 197.627,99.541C197.33,99.768 197.182,100.082 197.182,100.484C197.182,100.781 197.236,101.024 197.346,101.214C197.455,101.403 197.64,101.577 197.899,101.735C198.159,101.894 198.557,102.068 199.092,102.26C199.99,102.58 200.608,102.924 200.946,103.291C201.284,103.658 201.453,104.135 201.453,104.721Z" style="fill:rgb(0,155,139);fill-rule:nonzero;"/>
        <path d="M205.842,107L204.846,107L204.846,99.318L202.133,99.318L202.133,98.434L208.555,98.434L208.555,99.318L205.842,99.318L205.842,107Z" style="fill:rgb(0,155,139);fill-rule:nonzero;"/>
        <path d="M218.346,107L217.279,104.275L213.846,104.275L212.791,107L211.783,107L215.17,98.398L216.008,98.398L219.377,107L218.346,107ZM216.969,103.379L215.973,100.725C215.844,100.389 215.711,99.977 215.574,99.488C215.488,99.863 215.365,100.275 215.205,100.725L214.197,103.379L216.969,103.379Z" style="fill:rgb(0,155,139);fill-rule:nonzero;"/>
        <path d="M228.506,104.721C228.506,105.475 228.232,106.063 227.686,106.484C227.139,106.906 226.396,107.117 225.459,107.117C224.443,107.117 223.662,106.986 223.115,106.725L223.115,105.764C223.467,105.912 223.85,106.029 224.264,106.115C224.678,106.201 225.088,106.244 225.494,106.244C226.158,106.244 226.658,106.118 226.994,105.866C227.33,105.614 227.498,105.264 227.498,104.814C227.498,104.518 227.438,104.274 227.319,104.085C227.2,103.896 227.001,103.721 226.722,103.561C226.442,103.4 226.018,103.219 225.447,103.016C224.65,102.73 224.081,102.393 223.739,102.002C223.397,101.611 223.227,101.102 223.227,100.473C223.227,99.812 223.475,99.287 223.971,98.896C224.467,98.506 225.123,98.311 225.939,98.311C226.791,98.311 227.574,98.467 228.289,98.779L227.979,99.646C227.271,99.35 226.584,99.201 225.916,99.201C225.389,99.201 224.977,99.314 224.68,99.541C224.383,99.768 224.234,100.082 224.234,100.484C224.234,100.781 224.289,101.024 224.398,101.214C224.508,101.403 224.692,101.577 224.952,101.735C225.212,101.894 225.609,102.068 226.145,102.26C227.043,102.58 227.661,102.924 227.999,103.291C228.337,103.658 228.506,104.135 228.506,104.721Z" style="fill:rgb(0,155,139);fill-rule:nonzero;"/>
        <path d="M236.762,107L235.766,107L235.766,102.969L231.254,102.969L231.254,107L230.258,107L230.258,98.434L231.254,98.434L231.254,102.078L235.766,102.078L235.766,98.434L236.762,98.434L236.762,107Z" style="fill:rgb(0,155,139);fill-rule:nonzero;"/>
        <rect x="239.111" y="98.434" width="0.996" height="8.566" style="fill:rgb(0,155,139);fill-rule:nonzero;"/>
        <path d="M245.094,107L244.098,107L244.098,99.318L241.385,99.318L241.385,98.434L247.807,98.434L247.807,99.318L245.094,99.318L245.094,107Z" style="fill:rgb(0,155,139);fill-rule:nonzero;"/>
        <path d="M251.732,107L250.736,107L250.736,99.318L248.023,99.318L248.023,98.434L254.445,98.434L254.445,99.318L251.732,99.318L251.732,107Z" style="fill:rgb(0,155,139);fill-rule:nonzero;"/>
        <path d="M257.914,102.717L260.199,98.434L261.277,98.434L258.418,103.678L258.418,107L257.41,107L257.41,103.725L254.557,98.434L255.646,98.434L257.914,102.717Z" style="fill:rgb(0,155,139);fill-rule:nonzero;"/>
        <path d="M270.406,104.721C270.406,105.475 270.133,106.063 269.586,106.484C269.039,106.906 268.297,107.117 267.359,107.117C266.344,107.117 265.563,106.986 265.016,106.725L265.016,105.764C265.367,105.912 265.75,106.029 266.164,106.115C266.578,106.201 266.988,106.244 267.395,106.244C268.059,106.244 268.559,106.118 268.895,105.866C269.23,105.614 269.398,105.264 269.398,104.814C269.398,104.518 269.339,104.274 269.22,104.085C269.101,103.896 268.901,103.721 268.622,103.561C268.343,103.4 267.918,103.219 267.348,103.016C266.551,102.73 265.981,102.393 265.64,102.002C265.298,101.611 265.127,101.102 265.127,100.473C265.127,99.812 265.375,99.287 265.871,98.896C266.367,98.506 267.023,98.311 267.84,98.311C268.691,98.311 269.475,98.467 270.189,98.779L269.879,99.646C269.172,99.35 268.484,99.201 267.816,99.201C267.289,99.201 266.877,99.314 266.58,99.541C266.283,99.768 266.135,100.082 266.135,100.484C266.135,100.781 266.189,101.024 266.299,101.214C266.408,101.403 266.593,101.577 266.853,101.735C267.112,101.894 267.51,102.068 268.045,102.26C268.943,102.58 269.562,102.924 269.899,103.291C270.237,103.658 270.406,104.135 270.406,104.721Z" style="fill:rgb(0,155,139);fill-rule:nonzero;"/>
        <path d="M274.338,102.717L276.623,98.434L277.701,98.434L274.842,103.678L274.842,107L273.834,107L273.834,103.725L270.98,98.434L272.07,98.434L274.338,102.717Z" style="fill:rgb(0,155,139);fill-rule:nonzero;"/>
        <path d="M285.57,107L284.434,107L279.752,99.811L279.705,99.811C279.768,100.654 279.799,101.428 279.799,102.131L279.799,107L278.879,107L278.879,98.434L280.004,98.434L284.674,105.594L284.721,105.594C284.713,105.488 284.695,105.149 284.668,104.577C284.641,104.005 284.631,103.596 284.639,103.35L284.639,98.434L285.57,98.434L285.57,107Z" style="fill:rgb(0,155,139);fill-rule:nonzero;"/>
        <path d="M290.563,107L289.566,107L289.566,99.318L286.854,99.318L286.854,98.434L293.275,98.434L293.275,99.318L290.563,99.318L290.563,107Z" style="fill:rgb(0,155,139);fill-rule:nonzero;"/>
        <path d="M301.068,107L300.072,107L300.072,102.969L295.561,102.969L295.561,107L294.564,107L294.564,98.434L295.561,98.434L295.561,102.078L300.072,102.078L300.072,98.434L301.068,98.434L301.068,107Z" style="fill:rgb(0,155,139);fill-rule:nonzero;"/>
    </g>
</svg>
